<?xml version="1.0" encoding="UTF-8"?>
<!DOCTYPE svg PUBLIC "-//W3C//DTD SVG 1.1//EN" "http://www.w3.org/Graphics/SVG/1.1/DTD/svg11.dtd">
<!-- Creator: CorelDRAW -->
<svg xmlns="http://www.w3.org/2000/svg" xml:space="preserve" width="83.9914mm" height="17.6106mm" version="1.1" style="shape-rendering:geometricPrecision; text-rendering:geometricPrecision; image-rendering:optimizeQuality; fill-rule:evenodd; clip-rule:evenodd"
viewBox="0 0 8399.14 1761.06"
 xmlns:xlink="http://www.w3.org/1999/xlink"
 xmlns:xodm="http://www.corel.com/coreldraw/odm/2003">
 <defs>
  <style type="text/css">
   <![CDATA[
    .fil1 {fill:white}
    .fil0 {fill:white;fill-rule:nonzero}
   ]]>
  </style>
 </defs>
 <g id="Layer_x0020_1">
  <metadata id="CorelCorpID_0Corel-Layer"/>
  <g id="_2168475103024">
   <polygon class="fil0" points="7528.45,694.32 7793.41,694.32 7949.06,1214.86 8099.32,694.18 8364.16,693.59 8365.27,1433.25 8178.28,1432.38 8178.29,907.39 8036.07,1432.38 7845.52,1432.38 7707.68,906.36 7707.6,1432.38 7528.45,1432.38 "/>
   <polygon class="fil0" points="6971.45,694.32 7403.53,693.48 7403.26,858.9 7169.91,858.9 7169.91,969.65 7387.44,969.65 7387.44,1131.8 7169.91,1131.8 7169.91,1266.27 7403.26,1266.64 7403.26,1432.38 6972.16,1432.38 "/>
   <path class="fil0" d="M6639.94 1293.96l-237.31 0 -39.55 138.42 -219.41 0.58 243.14 -740.17 261.04 1.02 248.07 739.38 -220.39 -0.81 -35.59 -138.42zm-40.51 -162.6l-75.51 -295.58 -79.56 295.58 155.07 0z"/>
   <path class="fil0" d="M5477.15 694.32l309.85 0c60.93,0 110.4,9.03 147.93,26.94 37.53,18.07 68.63,43.82 93.28,77.42 24.5,33.76 42.25,72.81 53.24,117.48 11.15,44.68 16.65,91.92 16.65,141.88 0,78.27 -8.17,138.97 -24.66,182.12 -16.33,43.14 -39.1,79.29 -68.31,108.45 -29.21,29.16 -60.46,48.6 -93.91,58.32 -45.7,13.3 -87.16,19.95 -124.22,19.95l-309.85 0 0 -732.56zm200.08 167.47l0 400.05 53.78 0c45.86,0 78.59,-5.19 97.99,-15.69 19.36,-10.47 34.52,-28.81 45.54,-54.91 11.08,-26.24 16.49,-68.55 16.49,-127.21 0,-77.58 -12.21,-130.62 -36.79,-159.26 -24.58,-28.65 -65.33,-42.98 -122.24,-42.98l-54.77 0z"/>
   <rect class="fil1" x="5077.69" y="542.68" width="67.24" height="1020.4"/>
   <g>
    <g>
     <rect class="fil1" transform="matrix(0.0754494 -0.068052 0.0680522 0.0754493 50.3396 193.039)" width="942.09" height="942.09"/>
     <rect class="fil1" transform="matrix(0.0754494 -0.068052 0.0680522 0.0754493 269.914 126.098)" width="942.09" height="942.09"/>
     <rect class="fil1" transform="matrix(0.0754494 -0.068052 0.0680522 0.0754493 494.448 109.216)" width="942.09" height="942.09"/>
     <rect class="fil1" transform="matrix(0.0330613 -0.0298198 0.0298199 0.0330612 416.233 63.8498)" width="942.09" height="942.09"/>
     <rect class="fil1" transform="matrix(0.0754494 -0.068052 0.0680522 0.0754493 726.118 126.366)" width="942.09" height="942.09"/>
     <rect class="fil1" transform="matrix(0.0754494 -0.068052 0.0680522 0.0754493 943.39 193.625)" width="942.09" height="942.09"/>
     <rect class="fil1" transform="matrix(0.0330613 -0.0298198 0.0298199 0.0330612 655.698 61.958)" width="942.09" height="942.09"/>
     <rect class="fil1" transform="matrix(0.0330613 -0.0298198 0.0298199 0.0330612 327.714 265.636)" width="942.09" height="942.09"/>
     <rect class="fil1" transform="matrix(0.0330613 -0.0298198 0.0298199 0.0330612 139.011 307.57)" width="942.09" height="942.09"/>
     <rect class="fil1" transform="matrix(0.0330613 -0.0298198 0.0298199 0.0330612 532.891 245.418)" width="942.09" height="942.09"/>
     <rect class="fil1" transform="matrix(0.0330613 -0.0298198 0.0298199 0.0330612 730.58 261.144)" width="942.09" height="942.09"/>
     <rect class="fil1" transform="matrix(0.0330613 -0.0298198 0.0298199 0.0330612 925.274 304.576)" width="942.09" height="942.09"/>
     <rect class="fil1" transform="matrix(0.047119 -0.0424993 0.0424993 0.0471189 834.646 245.482)" width="942.09" height="942.09"/>
     <rect class="fil1" transform="matrix(0.047119 -0.0424993 0.0424993 0.0471189 628.946 207.247)" width="942.09" height="942.09"/>
     <rect class="fil1" transform="matrix(0.047119 -0.0424993 0.0424993 0.0471189 418.406 212.087)" width="942.09" height="942.09"/>
     <rect class="fil1" transform="matrix(0.047119 -0.0424993 0.0424993 0.0471189 210.77 248.438)" width="942.09" height="942.09"/>
    </g>
    <path class="fil1" d="M196.17 502.38c245.11,-107.66 487.33,-109 726.55,-0.74l59.62 -120.72c-278.69,-125.61 -560.47,-121.73 -845.06,0l58.89 121.46z"/>
    <path class="fil1" d="M141.7 559.86l834.68 -0.84 -415.65 329.3 -419.03 -328.46zm419.2 126.38l16.19 45.64 52.69 -0.1 -42.69 28.12 16.38 45.58 -42.57 -28.26 -42.57 28.26 16.38 -45.58 -42.68 -28.12 52.69 0.1 16.18 -45.64z"/>
    <path class="fil1" d="M33.86 628.34l1.92 581.6c-7.14,121.46 14.15,214.47 52.99,289.95l388.56 -313.63c-128.44,-73.68 -134.13,-145.2 -11.88,-225.49l-431.59 -332.43zm224.43 532.03l16.19 45.64 52.69 -0.09 -42.69 28.12 16.38 45.58 -42.57 -28.27 -42.57 28.27 16.38 -45.58 -42.68 -28.12 52.69 0.09 16.18 -45.64zm-78.5 -154.99l16.18 45.64 52.69 -0.09 -42.68 28.11 16.38 45.58 -42.57 -28.26 -42.57 28.26 16.38 -45.58 -42.69 -28.11 52.69 0.09 16.19 -45.64zm64.25 -173.48l16.19 45.64 52.69 -0.09 -42.69 28.11 16.38 45.59 -42.57 -28.27 -42.56 28.27 16.37 -45.59 -42.68 -28.11 52.69 0.09 16.18 -45.64z"/>
    <path class="fil1" d="M186.5 1575.04l373.22 -316.43 395.05 317.45c-246.65,188.49 -501.42,214.49 -768.27,-1.02zm374.15 -224.79l16.18 45.64 52.69 -0.09 -42.69 28.12 16.38 45.58 -42.56 -28.27 -42.57 28.27 16.38 -45.58 -42.69 -28.12 52.69 0.09 16.19 -45.64z"/>
    <path class="fil1" d="M1083.18 628.02l-1.92 581.6c7.15,121.45 -14.15,214.47 -52.98,289.95l-388.57 -313.64c128.44,-73.68 134.14,-145.2 11.88,-225.49l431.59 -332.42zm-224.43 532.03l-16.18 45.64 -52.69 -0.09 42.68 28.11 -16.37 45.58 42.56 -28.26 42.57 28.26 -16.38 -45.58 42.69 -28.11 -52.69 0.09 -16.19 -45.64zm78.5 -154.99l-16.18 45.63 -52.69 -0.09 42.68 28.12 -16.37 45.58 42.56 -28.26 42.57 28.26 -16.38 -45.58 42.69 -28.12 -52.69 0.09 -16.19 -45.63zm-64.25 -173.48l-16.19 45.64 -52.69 -0.09 42.69 28.11 -16.38 45.58 42.57 -28.26 42.57 28.26 -16.38 -45.58 42.68 -28.11 -52.69 0.09 -16.18 -45.64z"/>
    <rect class="fil1" transform="matrix(0.0104533 -0.00968044 0.0104533 0.00968044 496.8 1059.39)" width="6049.07" height="6049.07"/>
   </g>
   <path class="fil0" d="M4386 722.78l0 312.21c0,6.18 -1.22,11.83 -3.54,17.08 -2.31,5.24 -5.41,9.85 -9.52,13.58 -4.18,3.79 -8.97,6.72 -14.41,9.01 -5.44,2.28 -14.52,3.49 -20.5,3.49 -6.39,0 -12.11,-1.21 -17.55,-3.49 -5.3,-2.29 -9.93,-5.25 -13.87,-9.01 -3.95,-3.77 -7.07,-8.34 -9.39,-13.58 -2.31,-5.25 -3.53,-10.89 -3.53,-17.08l0 -428.78c0,-11.56 3.81,-21.38 11.42,-29.45 3.54,-4.57 8.03,-8.2 13.47,-10.89 5.44,-2.69 11.83,-4.03 19.18,-4.03 6.52,0 24.31,1.86 30.43,4.68 6.12,2.82 11.58,6.86 16.05,12.37l270.95 334.69 0 -308.58c0,-5.92 1.23,-11.56 3.67,-16.94 2.45,-5.38 5.72,-9.95 9.8,-13.72 4.21,-3.76 8.97,-6.85 14.41,-9.14 5.45,-2.29 11.29,-3.36 17.69,-3.36 5.98,0 11.56,1.07 17,3.36 5.3,2.29 9.92,5.38 13.87,9.14 3.94,3.77 7.07,8.34 9.25,13.72 2.17,5.38 3.26,11.02 3.26,16.94l0 429.99c0,6.99 -1.5,13.45 -4.49,19.36 -2.99,5.92 -7.07,10.76 -12.24,14.53 -3.26,2.95 -6.93,5.24 -11.15,6.85 -4.22,1.62 -9.11,2.42 -14.55,2.42l-1.63 0 -0.82 0c-6.53,0 -24.79,-2.06 -29.69,-4.88 -4.89,-2.83 -9.56,-6.83 -13.87,-12.24l-269.7 -338.25z"/>
   <path class="fil0" d="M3621.16 1034.99c0,6.18 -1.22,11.84 -3.53,17.08 -2.31,5.24 -5.41,9.85 -9.52,13.58 -4.19,3.79 -8.98,6.72 -14.42,9.01 -5.44,2.28 -11.15,3.49 -17.14,3.49 -6.39,0 -12.11,-1.19 -17.54,-3.49 -5.31,-2.26 -9.93,-5.25 -13.87,-9.01 -3.95,-3.77 -7.08,-8.34 -9.39,-13.58 -2.31,-5.24 -3.53,-10.89 -3.53,-17.08l0 -429.99c0,-6.18 1.22,-11.97 3.53,-17.21 2.31,-5.24 5.44,-9.82 9.39,-13.72 3.94,-3.89 8.56,-6.88 13.87,-9 5.43,-2.18 11.15,-3.23 17.54,-3.23 5.99,0 11.7,1.08 17.14,3.23 5.44,2.14 10.23,5.07 14.42,9 4.11,3.87 7.21,8.48 9.52,13.72 2.31,5.24 3.53,11.03 3.53,17.21l0 429.99z"/>
   <path class="fil0" d="M3065.96 722.78l0 312.21c0,6.18 -1.23,11.83 -3.54,17.08 -2.31,5.24 -5.41,9.85 -9.52,13.58 -4.18,3.79 -8.98,6.72 -14.42,9.01 -5.44,2.28 -11.15,3.49 -17.13,3.49 -6.4,0 -12.12,-1.18 -17.55,-3.49 -5.31,-2.26 -9.93,-5.25 -13.87,-9.01 -3.94,-3.77 -7.07,-8.34 -9.39,-13.58 -2.3,-5.24 -3.53,-10.89 -3.53,-17.08l0 -428.78c0,-11.56 4.09,-21.13 11.42,-29.45 3.82,-4.33 8.03,-8.2 13.47,-10.89 5.44,-2.68 11.83,-4.03 19.18,-4.03 6.52,0 20,1.86 26.12,4.68 6.12,2.82 11.59,6.86 16.05,12.37l270.78 334.69 0 -308.58c0,-5.92 1.22,-11.56 3.67,-16.94 2.45,-5.38 5.71,-9.95 9.79,-13.72 4.22,-3.76 8.98,-6.85 14.42,-9.14 5.44,-2.29 11.29,-3.36 17.68,-3.36 5.98,0 11.56,1.07 17,3.36 5.31,2.29 9.93,5.38 13.87,9.14 3.95,3.77 7.08,8.34 9.25,13.72 2.18,5.38 3.27,11.02 3.27,16.94l0 429.99c0,6.99 -1.5,13.45 -4.49,19.36 -2.99,5.92 -7.07,10.76 -12.24,14.53 -3.27,2.95 -6.94,5.24 -11.15,6.85 -4.22,1.62 -9.12,2.42 -14.56,2.42l-1.63 0 -0.82 0c-6.53,0 -21.15,0.14 -26.04,-2.68 -4.9,-2.82 -9.56,-6.83 -13.88,-12.23l-272.21 -340.46z"/>
   <path class="fil0" d="M2549.1 851.84l0 2.02c0,18.64 -3.9,41.84 4.96,58.91 54.75,105.48 167.17,106.43 218,-3.9 7.85,-17.04 11.15,-35.76 11.15,-55.66l0 -248.21c0,-6.18 1.23,-11.97 3.54,-17.21 2.31,-5.24 5.41,-9.85 9.52,-13.72 4.19,-3.93 8.83,-6.88 14.15,-9 5.43,-2.18 11.15,-3.23 17.54,-3.23 5.99,0 11.7,1.07 17.14,3.23 5.44,2.15 10.2,5.11 14.14,9 3.95,3.9 7.08,8.48 9.39,13.72 2.31,5.24 3.53,11.03 3.53,17.21l0 245.65c0,29.8 -2.47,72.06 -14.57,100.01 -12.1,27.97 -18.73,44.3 -39.7,64.97 -21.05,20.74 -45.57,37.11 -73.72,49.21 -28.29,12.1 -58.35,18.15 -90.44,18.15 -32.24,0 -38.25,-1.6 -67.06,-13.68 -28.81,-12.08 -51.33,-26.74 -73.17,-47.46 -21.91,-20.78 -34.7,-48.22 -47.46,-76.17 -12.76,-27.94 -9.63,-59.45 -9.63,-90.91l0 -247.94c0,-5.92 1.24,-11.58 3.53,-16.94 2.29,-5.36 5.44,-9.95 9.39,-13.85 3.94,-3.9 8.58,-7.17 13.87,-9.41 5.41,-2.29 11.15,-3.36 17.54,-3.36 5.99,0 11.7,1.07 17.14,3.36 5.44,2.28 10.26,5.36 14.42,9.28 4.09,3.84 7.23,8.62 9.52,13.98 2.29,5.35 3.45,11.07 3.54,16.94l3.74 245.01z"/>
   <path class="fil0" d="M2074.48 979.73l-233.39 0 -30.6 72.61c-2.45,5.64 -5.85,10.48 -10.2,14.52 -4.35,4.03 -9.11,6.99 -14.42,8.87 -5.3,1.88 -11.02,2.69 -17.14,2.56 -6.12,-0.14 -12.1,-1.35 -17.81,-3.77 -5.99,-2.42 -10.88,-5.78 -14.69,-9.95 -3.81,-4.17 -6.53,-8.74 -8.3,-13.85 -1.77,-5.11 -2.45,-10.62 -2.04,-16.54 0.41,-5.91 1.77,-11.69 4.22,-17.34l186.46 -428.38c3.81,-8.6 9.25,-15.19 16.32,-19.76 7.08,-4.57 15.24,-6.86 24.48,-6.86 8.71,0 16.6,2.29 23.67,6.86 7.07,4.57 12.51,11.02 16.32,19.36l187.69 428.78c4.9,11.3 5.71,22.45 2.31,33.48 -3.4,11.03 -10.88,19.09 -22.3,24.2 -5.72,2.42 -11.56,3.63 -17.55,3.77 -5.98,0.13 -11.56,-0.81 -16.86,-2.83 -5.31,-2.01 -10.2,-4.97 -14.56,-8.87 -4.35,-3.9 -7.88,-8.61 -10.6,-14.25l-31.01 -72.61zm-197.89 -87.93l161.17 0 -79.98 -189.99 -81.19 189.99z"/>
   <path class="fil0" d="M1436.74 990.22l226.45 0.4c5.99,0 11.7,1.21 17.14,3.5 5.44,2.28 10.2,5.38 14.15,9.41 3.94,4.17 7.07,8.87 9.38,14.25 2.31,5.38 3.4,11.03 3.4,16.94 0,6.32 -1.09,11.97 -3.4,17.35 -2.31,5.24 -5.44,9.81 -9.38,13.71 -3.95,3.9 -8.71,6.99 -14.15,9.28 -5.44,2.29 -11.15,3.36 -17.14,3.09l-269.42 0 -1.64 0c-1.76,0 -3.26,0 -4.76,0 -1.49,0 -2.99,-0.27 -4.35,-0.8 -1.09,0 -2.17,-0.27 -3.26,-0.81 -9.25,-2.42 -17,-7.4 -22.99,-14.93 -5.98,-7.53 -8.97,-16.4 -8.97,-26.62l0 -429.99c0,-5.92 1.22,-11.56 3.53,-16.94 2.31,-5.38 5.44,-9.95 9.39,-13.72 3.94,-3.76 8.56,-6.85 13.87,-9.14 5.44,-2.29 11.15,-3.36 17.54,-3.36 5.99,0 11.7,1.07 17.14,3.36 5.44,2.29 10.2,5.38 14.42,9.14 4.08,3.77 7.2,8.34 9.52,13.72 2.31,5.38 3.53,11.02 3.53,16.94l0 385.22z"/>
   <path class="fil1" d="M3937.32 495.83c29,-23.73 58,-47.46 87.01,-71.19 47.5,-19.53 75.45,26.45 51.41,59.33l-96.9 51.41c-35.88,5.2 -49.95,-7.8 -41.52,-39.55z"/>
   <path class="fil1" d="M3969.79 988.49c-95.83,0 -157.68,-73.19 -157.68,-157.87 0,-56.5 2.43,-99.35 46.26,-143.14 143.76,-143.64 352.81,67.86 219.65,247.55 -19.67,26.54 -63.94,53.46 -108.23,53.46zm-260.18 -177.61c0,149.69 107.61,268.39 248.36,268.39 151.99,0 260.18,-118.59 260.18,-244.71 0,-83.71 -14.69,-151.1 -75.73,-212.29 -150.38,-150.77 -432.81,-52.37 -432.81,188.61z"/>
   <path class="fil0" d="M1370.56 1479.94l0 -270.63 35.91 0 0 270.63 -35.91 0zm94.06 0l0 -270.63 33.26 0 0 270.63 -33.26 0zm212.86 0l0 -29.16c-15.24,22.24 -35.91,33.32 -62.05,33.32 -11.53,0 -22.3,-2.2 -32.32,-6.61 -10.01,-4.47 -17.45,-10.02 -22.3,-16.7 -4.85,-6.74 -8.25,-14.93 -10.2,-24.63 -1.33,-6.55 -2.02,-16.88 -2.02,-30.99l0 -121.4 33.26 0 0 108.55c0,17.32 0.7,29.04 2.02,35.02 2.08,8.76 6.49,15.56 13.29,20.54 6.74,4.98 15.06,7.5 25.01,7.5 9.95,0 19.28,-2.52 27.97,-7.63 8.69,-5.1 14.87,-12.09 18.52,-20.85 3.59,-8.75 5.42,-21.54 5.42,-38.24l0 -104.89 33.26 0 0 196.17 -29.86 0zm68.86 -58.58l32.88 -5.29c1.83,13.16 6.99,23.24 15.43,30.3 8.45,6.99 20.29,10.52 35.41,10.52 15.31,0 26.65,-3.09 34.08,-9.33 7.37,-6.17 11.09,-13.48 11.09,-21.85 0,-7.5 -3.34,-13.42 -9.96,-17.71 -4.66,-2.96 -16,-6.67 -34.01,-11.27 -24.32,-6.11 -41.14,-11.41 -50.59,-15.88 -9.39,-4.53 -16.51,-10.71 -21.36,-18.65 -4.85,-7.87 -7.3,-16.63 -7.3,-26.2 0,-8.76 2.01,-16.82 5.98,-24.26 4.03,-7.43 9.45,-13.6 16.32,-18.52 5.16,-3.78 12.22,-6.99 21.1,-9.63 8.95,-2.65 18.46,-3.97 28.66,-3.97 15.38,0 28.86,2.2 40.45,6.67 11.65,4.41 20.22,10.46 25.76,18.02 5.48,7.62 9.33,17.77 11.41,30.49l-32.51 4.54c-1.45,-10.21 -5.73,-18.21 -12.79,-23.94 -7.05,-5.73 -17.01,-8.57 -29.92,-8.57 -15.18,0 -26.08,2.52 -32.57,7.56 -6.49,5.04 -9.77,10.96 -9.77,17.7 0,4.29 1.33,8.19 4.04,11.66 2.7,3.52 6.93,6.49 12.72,8.82 3.34,1.26 13.04,4.09 29.29,8.5 23.44,6.24 39.82,11.4 49.14,15.37 9.33,3.97 16.63,9.83 21.92,17.39 5.36,7.62 8.01,17.07 8.01,28.41 0,11.02 -3.22,21.42 -9.71,31.18 -6.48,9.77 -15.81,17.33 -27.97,22.68 -12.22,5.36 -26.01,8 -41.39,8 -25.45,0 -44.91,-5.29 -58.27,-15.81 -13.35,-10.58 -21.86,-26.21 -25.57,-46.93zm274.41 28.91l4.53 29.36c-9.32,1.95 -17.7,2.96 -25.01,2.96 -12.03,0 -21.35,-1.89 -28.03,-5.73 -6.61,-3.84 -11.28,-8.82 -13.98,-15.06 -2.71,-6.23 -4.04,-19.34 -4.04,-39.31l0 -113.01 -24.56 0 0 -25.71 24.56 0 0 -48.5 33.27 -19.97 0 68.47 33.26 0 0 25.71 -33.26 0 0 114.9c0,9.52 0.56,15.63 1.76,18.33 1.13,2.71 3.02,4.85 5.67,6.49 2.65,1.58 6.42,2.4 11.34,2.4 3.65,0 8.5,-0.44 14.49,-1.33zm32.44 29.67l0 -196.17 29.86 0 0 30.05c7.62,-13.92 14.68,-23.12 21.17,-27.53 6.49,-4.47 13.61,-6.67 21.35,-6.67 11.22,0 22.62,3.52 34.21,10.52l-11.84 30.68c-8.07,-4.54 -16.13,-6.81 -24.19,-6.81 -7.25,0 -13.74,2.21 -19.47,6.55 -5.73,4.35 -9.83,10.4 -12.28,18.15 -3.72,11.78 -5.55,24.69 -5.55,38.74l0 102.49 -33.26 0zm260.05 -63.5l34.4 4.54c-5.36,19.97 -15.37,35.53 -29.99,46.55 -14.62,11.03 -33.26,16.57 -56,16.57 -28.6,0 -51.28,-8.82 -68.04,-26.46 -16.76,-17.57 -25.14,-42.33 -25.14,-74.14 0,-32.89 8.45,-58.46 25.39,-76.61 16.95,-18.2 38.93,-27.27 65.96,-27.27 26.14,0 47.5,8.88 64.07,26.71 16.56,17.82 24.88,42.9 24.88,75.21 0,1.96 -0.06,4.92 -0.19,8.82l-146.09 0c1.26,21.49 7.31,37.99 18.27,49.39 10.9,11.41 24.57,17.14 40.89,17.14 12.15,0 22.55,-3.22 31.12,-9.64 8.63,-6.43 15.43,-16.69 20.47,-30.81zm-108.86 -53.29l109.24 0c-1.45,-16.51 -5.67,-28.85 -12.54,-37.1 -10.52,-12.79 -24.25,-19.22 -41.07,-19.22 -15.25,0 -28.03,5.1 -38.43,15.31 -10.33,10.2 -16.06,23.87 -17.2,41.01zm293.69 116.79l0 -270.63 53.67 0 64.01 191.58c5.92,17.82 10.2,31.18 12.91,40.06 3.09,-9.83 7.94,-24.32 14.49,-43.4l65.14 -188.24 47.94 0 0 270.63 -34.39 0 0 -226.4 -79 226.4 -32.26 0 -78.11 -230.56 0 230.56 -34.4 0zm439.59 0l0 -29.16c-15.24,22.24 -35.91,33.32 -62.05,33.32 -11.53,0 -22.3,-2.2 -32.32,-6.61 -10.01,-4.47 -17.45,-10.02 -22.3,-16.7 -4.85,-6.74 -8.25,-14.93 -10.2,-24.63 -1.33,-6.55 -2.02,-16.88 -2.02,-30.99l0 -121.4 33.26 0 0 108.55c0,17.32 0.69,29.04 2.02,35.02 2.08,8.76 6.49,15.56 13.29,20.54 6.74,4.98 15.06,7.5 25.01,7.5 9.95,0 19.28,-2.52 27.97,-7.63 8.69,-5.1 14.87,-12.09 18.52,-20.85 3.59,-8.75 5.42,-21.54 5.42,-38.24l0 -104.89 33.26 0 0 196.17 -29.86 0zm82.09 0l0 -196.17 29.86 0 0 27.85c14.36,-21.36 35.15,-32 62.3,-32 11.84,0 22.68,2.14 32.57,6.36 9.89,4.22 17.32,9.83 22.24,16.69 4.91,6.87 8.37,15.06 10.33,24.51 1.19,6.17 1.82,16.95 1.82,32.32l0 120.44 -33.26 0 0 -119.18c0,-13.55 -1.26,-23.69 -3.84,-30.37 -2.58,-6.68 -7.18,-12.03 -13.73,-16.06 -6.56,-3.97 -14.3,-5.99 -23.12,-5.99 -14.11,0 -26.27,4.48 -36.54,13.48 -10.27,8.95 -15.37,26.02 -15.37,51.09l0 107.03 -33.26 0zm210.21 -232.83l0 -37.8 33.27 0 0 37.8 -33.27 0zm0 232.83l0 -196.17 33.27 0 0 196.17 -33.27 0zm212.11 -71.81l32.51 4.53c-3.59,22.37 -12.66,39.82 -27.34,52.48 -14.68,12.66 -32.76,18.96 -54.12,18.96 -26.77,0 -48.31,-8.75 -64.57,-26.27 -16.31,-17.51 -24.44,-42.58 -24.44,-75.21 0,-21.17 3.53,-39.63 10.52,-55.5 6.99,-15.82 17.64,-27.72 32,-35.6 14.3,-7.93 29.86,-11.9 46.75,-11.9 21.23,0 38.68,5.35 52.16,16.12 13.54,10.78 22.24,26.08 26.01,45.87l-32.12 4.91c-3.09,-13.17 -8.51,-23.06 -16.38,-29.74 -7.81,-6.61 -17.26,-9.95 -28.35,-9.95 -16.76,0 -30.37,5.99 -40.89,17.95 -10.45,12.04 -15.68,30.94 -15.68,56.89 0,26.33 5.04,45.42 15.12,57.33 10.14,11.9 23.31,17.89 39.5,17.89 13.1,0 24,-3.97 32.69,-11.97 8.76,-7.94 14.3,-20.22 16.63,-36.79zm60.86 -161.02l0 -37.8 33.26 0 0 37.8 -33.26 0zm0 232.83l0 -196.17 33.26 0 0 196.17 -33.26 0zm83.97 75.22l0 -271.39 30.24 0 0 25.77c7.12,-9.95 15.18,-17.45 24.19,-22.43 8.95,-4.97 19.84,-7.49 32.63,-7.49 16.76,0 31.5,4.28 44.29,12.91 12.79,8.57 22.42,20.73 28.98,36.35 6.48,15.69 9.76,32.82 9.76,51.53 0,19.97 -3.59,37.99 -10.77,54.05 -7.18,16 -17.64,28.29 -31.37,36.85 -13.67,8.51 -28.1,12.79 -43.22,12.79 -11.09,0 -21.04,-2.33 -29.8,-6.99 -8.82,-4.66 -16,-10.52 -21.67,-17.64l0 95.69 -33.26 0zm30.24 -172.1c0,25.13 5.1,43.72 15.24,55.75 10.21,12.03 22.56,18.08 37.05,18.08 14.74,0 27.34,-6.24 37.79,-18.71 10.52,-12.47 15.75,-31.75 15.75,-57.9 0,-24.94 -5.1,-43.59 -15.37,-56 -10.27,-12.41 -22.49,-18.58 -36.73,-18.58 -14.11,0 -26.58,6.61 -37.41,19.78 -10.9,13.23 -16.32,32.38 -16.32,57.58zm308.11 72.32c-12.34,10.52 -24.25,17.89 -35.65,22.23 -11.4,4.35 -23.63,6.49 -36.73,6.49 -21.54,0 -38.11,-5.23 -49.7,-15.75 -11.59,-10.45 -17.39,-23.87 -17.39,-40.19 0,-9.57 2.21,-18.33 6.55,-26.27 4.41,-7.93 10.14,-14.24 17.2,-19.02 7.12,-4.79 15.06,-8.44 23.94,-10.9 6.55,-1.7 16.44,-3.34 29.61,-4.98 26.83,-3.15 46.68,-6.99 59.34,-11.4 0.13,-4.54 0.19,-7.43 0.19,-8.63 0,-13.48 -3.15,-22.99 -9.45,-28.54 -8.51,-7.49 -21.17,-11.21 -37.93,-11.21 -15.68,0 -27.27,2.77 -34.71,8.25 -7.49,5.48 -12.97,15.18 -16.56,29.17l-32.51 -4.54c2.96,-13.92 7.81,-25.2 14.62,-33.76 6.8,-8.57 16.63,-15.12 29.48,-19.78 12.79,-4.6 27.72,-6.93 44.6,-6.93 16.76,0 30.43,1.95 40.95,5.92 10.45,3.97 18.2,8.88 23.12,14.87 4.91,5.98 8.38,13.54 10.39,22.67 1.07,5.67 1.64,15.88 1.64,30.56l0 44.09c0,30.81 0.69,50.28 2.08,58.53 1.32,8.25 4.09,16.13 8.12,23.68l-34.77 0c-3.34,-6.99 -5.48,-15.18 -6.43,-24.56zm-2.64 -73.71c-12.1,4.91 -30.24,9.07 -54.43,12.47 -13.73,1.96 -23.44,4.16 -29.1,6.62 -5.68,2.46 -10.02,6.05 -13.11,10.71 -3.08,4.72 -4.66,9.95 -4.66,15.75 0,8.75 3.34,16.12 10.08,21.98 6.74,5.86 16.57,8.82 29.48,8.82 12.79,0 24.19,-2.77 34.21,-8.38 9.95,-5.54 17.32,-13.16 21.98,-22.8 3.6,-7.5 5.36,-18.52 5.36,-33.07l0.19 -12.1zm83.97 98.27l0 -270.63 33.26 0 0 270.63 -33.26 0zm84.73 -232.83l0 -37.8 33.26 0 0 37.8 -33.26 0zm0 232.83l0 -196.17 33.26 0 0 196.17 -33.26 0zm210.6 0l0 -24.88c-12.41,19.34 -30.68,29.04 -54.81,29.04 -15.62,0 -29.98,-4.28 -43.02,-12.91 -13.11,-8.57 -23.25,-20.6 -30.5,-35.97 -7.18,-15.44 -10.77,-33.14 -10.77,-53.17 0,-19.53 3.28,-37.23 9.77,-53.17 6.55,-15.88 16.31,-28.1 29.35,-36.54 12.98,-8.5 27.6,-12.72 43.66,-12.72 11.84,0 22.36,2.52 31.56,7.49 9.2,4.98 16.7,11.53 22.49,19.53l0 -97.33 33.26 0 0 270.63 -30.99 0zm-105.08 -97.83c0,25.07 5.29,43.78 15.94,56.19 10.58,12.41 23.12,18.59 37.54,18.59 14.56,0 26.9,-5.92 37.11,-17.77 10.14,-11.84 15.24,-29.92 15.24,-54.24 0,-26.71 -5.16,-46.36 -15.56,-58.9 -10.33,-12.53 -23.12,-18.77 -38.3,-18.77 -14.8,0 -27.15,5.98 -37.1,18.02 -9.89,12.03 -14.87,30.99 -14.87,56.88zm316.81 73.27c-12.35,10.52 -24.25,17.89 -35.66,22.23 -11.4,4.35 -23.62,6.49 -36.72,6.49 -21.55,0 -38.12,-5.23 -49.71,-15.75 -11.59,-10.45 -17.38,-23.87 -17.38,-40.19 0,-9.57 2.2,-18.33 6.55,-26.27 4.41,-7.93 10.14,-14.24 17.2,-19.02 7.11,-4.79 15.05,-8.44 23.93,-10.9 6.56,-1.7 16.45,-3.34 29.61,-4.98 26.84,-3.15 46.68,-6.99 59.34,-11.4 0.13,-4.54 0.19,-7.43 0.19,-8.63 0,-13.48 -3.15,-22.99 -9.45,-28.54 -8.5,-7.49 -21.16,-11.21 -37.92,-11.21 -15.68,0 -27.28,2.77 -34.71,8.25 -7.5,5.48 -12.98,15.18 -16.57,29.17l-32.5 -4.54c2.96,-13.92 7.81,-25.2 14.61,-33.76 6.8,-8.57 16.63,-15.12 29.48,-19.78 12.79,-4.6 27.72,-6.93 44.6,-6.93 16.76,0 30.43,1.95 40.95,5.92 10.46,3.97 18.21,8.88 23.12,14.87 4.92,5.98 8.38,13.54 10.4,22.67 1.07,5.67 1.63,15.88 1.63,30.56l0 44.09c0,30.81 0.7,50.28 2.08,58.53 1.33,8.25 4.1,16.13 8.13,23.68l-34.77 0c-3.34,-6.99 -5.48,-15.18 -6.43,-24.56zm-2.65 -73.71c-12.09,4.91 -30.23,9.07 -54.42,12.47 -13.74,1.96 -23.44,4.16 -29.11,6.62 -5.67,2.46 -10.02,6.05 -13.1,10.71 -3.09,4.72 -4.66,9.95 -4.66,15.75 0,8.75 3.33,16.12 10.07,21.98 6.75,5.86 16.57,8.82 29.49,8.82 12.79,0 24.19,-2.77 34.2,-8.38 9.96,-5.54 17.33,-13.16 21.99,-22.8 3.59,-7.5 5.35,-18.52 5.35,-33.07l0.19 -12.1zm211.36 98.27l0 -24.88c-12.41,19.34 -30.68,29.04 -54.81,29.04 -15.62,0 -29.99,-4.28 -43.03,-12.91 -13.1,-8.57 -23.24,-20.6 -30.49,-35.97 -7.18,-15.44 -10.77,-33.14 -10.77,-53.17 0,-19.53 3.28,-37.23 9.77,-53.17 6.55,-15.88 16.31,-28.1 29.35,-36.54 12.98,-8.5 27.59,-12.72 43.66,-12.72 11.84,0 22.36,2.52 31.56,7.49 9.2,4.98 16.69,11.53 22.49,19.53l0 -97.33 33.26 0 0 270.63 -30.99 0zm-105.08 -97.83c0,25.07 5.29,43.78 15.94,56.19 10.58,12.41 23.12,18.59 37.54,18.59 14.56,0 26.9,-5.92 37.11,-17.77 10.14,-11.84 15.24,-29.92 15.24,-54.24 0,-26.71 -5.16,-46.36 -15.56,-58.9 -10.33,-12.53 -23.12,-18.77 -38.3,-18.77 -14.8,0 -27.15,5.98 -37.1,18.02 -9.89,12.03 -14.87,30.99 -14.87,56.88z"/>
  </g>
 </g>
</svg>
