<?xml version="1.0" encoding="UTF-8"?>
<!DOCTYPE svg PUBLIC "-//W3C//DTD SVG 1.1//EN" "http://www.w3.org/Graphics/SVG/1.1/DTD/svg11.dtd">
<!-- Creator: CorelDRAW Standard 2024 (Versión de evaluación) -->
<svg xmlns="http://www.w3.org/2000/svg" xml:space="preserve" width="90mm" height="100mm" version="1.1" style="shape-rendering:geometricPrecision; text-rendering:geometricPrecision; image-rendering:optimizeQuality; fill-rule:evenodd; clip-rule:evenodd"
viewBox="0 0 9000 10000"
 xmlns:xlink="http://www.w3.org/1999/xlink"
 xmlns:xodm="http://www.corel.com/coreldraw/odm/2003">
 <defs>
  <style type="text/css">
   <![CDATA[
    .fil0 {fill:white}
    .fil1 {fill:white;fill-rule:nonzero}
   ]]>
  </style>
 </defs>
 <g id="Capa_x0020_1">
  <metadata id="CorelCorpID_0Corel-Layer"/>
  <g id="_2169626959360">
   <path class="fil0" d="M4441.39 3887.34c26.64,-16.52 47.33,-88.58 57.37,-118.89 31.54,28.9 38.7,98.92 73.74,118.89l110.25 0c-9.29,17.55 -77.39,70.92 -99.25,83.4l32.33 121.08c-43.27,-17.65 -69.26,-48.97 -110.35,-71.7l-118.3 72.63c0.97,-43.14 28.69,-79.62 25.52,-127.08 -31.4,-29.79 -63.81,-48.18 -86.5,-79.8l115.19 1.47zm-1047.27 566.55c530.45,551.24 1444.2,574.32 2000.12,129.37 75.26,-60.23 117.01,-96.09 177,-165.24 17.45,-20.12 11.99,-8.33 22.37,-32.43l-1093.45 -870.34c-40.65,40.78 -94.41,77.17 -138.38,115.88l-829.84 700.38c-23.97,18.38 -47.55,39.86 -70.1,60.91 -23.78,22.2 -44.8,33.74 -67.72,61.47z"/>
   <path class="fil0" d="M3602.03 3359.49c10.05,-36.48 24.47,-91.11 48.4,-114.83l41.78 114.39 117.94 0c-12.27,22.37 -64.21,64 -85.5,82.5l28.61 127.47c-42.19,-17.58 -75.24,-50.21 -113.42,-64 -38.42,19 -69.02,46.04 -109.36,60.96l36.49 -127.23c-39.76,-24.82 -90.09,-78.61 -90.17,-78.67l125.23 -0.59zm-217.24 -426.73c26.23,-17.64 30.11,-71.56 51.01,-101.57 24.4,26.86 28.56,79.77 58.3,101.51l115.21 0.51c-11.08,16.28 -75.88,72.14 -96.32,84.88l31.22 130.56c-24.94,-11.38 -92.1,-58.04 -114.45,-56.29 -19.36,1.51 -87.17,46.29 -120.59,55.52l41.46 -130.87c-28.71,-12.12 -74.31,-61.39 -93.84,-83.88l128 -0.37zm183.07 -481.39c9.13,-33.52 27.38,-87.36 48.86,-110.3l52.22 110.62 107.07 1.95c-7.57,22.51 -68.13,70.67 -87.97,83.92l38.34 126.48c-21.28,-8.59 -43.77,-22.06 -63.79,-33.01 -88.93,-48.64 -44.49,-17.45 -179.9,41.7 4.96,-22.02 37.16,-116.36 35.97,-127.95 -2.78,-27.14 -60.44,-64.91 -73.29,-90.69l122.49 -2.72zm-389.37 1725.62c53.71,-24.15 570.31,-459.24 668.35,-536.33 46.09,-36.25 88.08,-70.68 132.6,-107.73 41.04,-34.15 253.52,-196.79 267.48,-225.79l-159.46 -124.17c-42.17,-33.19 -114.84,-87.31 -120.43,-164.45 -10.2,-141.03 141.54,-246.08 248.02,-318.94 -19.3,-27.12 -248.44,-195.28 -294.58,-231.57l-739.65 -571.86c-32.66,-25.12 -115.23,-93.01 -151.27,-108.33 0,422.33 0,844.66 0,1266.99 0,513.8 -54.2,674.11 148.94,1122.18z"/>
   <path class="fil0" d="M5313.99 3257.02c8.81,9.66 -1.06,-4.29 10.51,14.32 15.97,25.65 24.46,61.42 49.62,88.05l117.03 3.3c-11,19.98 -69.61,69.2 -93.31,83.76l33.2 126.18c-28.92,-9.03 -97.13,-55.67 -113.73,-54.16 -10.85,0.98 -79.38,47.08 -113.81,55.39l31.92 -118.27 -93.57 -94.01 129.82 -2.43 42.32 -102.13zm157.57 -326.08c9.23,-26.62 29.1,-92.41 51.23,-110.78l45.35 113.3 130.72 0.64c-14.79,11.54 -23.94,25.87 -41.31,39.7 -76.54,60.89 -44.52,42.3 -25.23,168.46 -43.94,-14.34 -71.79,-45.69 -112.87,-68.13l-127.86 66.71 39.93 -131.57c-26.33,-18.17 -66.6,-45.71 -87.44,-76.16l127.48 -2.17zm-184.89 -477.3c36.24,-28 34.14,-87.12 67.15,-113.65l39.84 113.28 108.42 0.41 -84.69 75.56c1.26,44.65 21.68,88.07 33.71,128.92 -27.78,-13.03 -86.13,-57.29 -112.68,-55.74 -26.22,1.53 -85.78,42.1 -119.07,52.19l44.33 -124.45c-17.98,-18.65 -73.81,-61.58 -97.7,-78.43l120.69 1.91zm-551.09 229.54c37.43,54.08 271.22,170.15 266.86,305.82 -2.55,79.24 -82.09,169.96 -134.8,222.33 -13.66,13.58 -23.73,19.5 -39.83,33.21 -24.39,20.78 -55.35,49.06 -78.56,66.68l1031.59 782.45c100.38,-156.33 112.51,-380.16 108.51,-572.48l-0.2 -1723.94c-197.26,143.76 -381.76,290.44 -576.32,438.37 -96.1,73.06 -189.5,143.51 -288.95,221.09 -48.15,37.56 -95.77,73.83 -144.34,110.69 -30.27,22.98 -125.65,89.69 -143.96,115.78z"/>
   <path class="fil0" d="M4498.78 1955.87c59.17,120.65 -2.9,101.66 180.36,103.8 -20.92,12.91 -88.35,69.57 -102.9,91.96l46.43 111.63c-31.92,-9.31 -103.03,-57.82 -123.45,-57.63 -17.75,0.16 -82.65,52.59 -120.87,63.55l34.82 -126.15c-37.03,-19.93 -71.46,-60.27 -99.78,-84.36l143.84 -1.05 41.55 -101.75zm-28.24 536.03c23.67,-10.78 1105.58,-855.94 1135.94,-888.99 10.34,-11.26 1.82,0.98 10.82,-14.59l-359.78 0.57c-607.63,0.7 -1271.4,8.77 -1872.71,-0.83l-59.24 0.63c17.56,24.58 43.47,41.48 66.35,60l928.59 732.8c42.32,32.98 103.09,85.93 150.03,110.41z"/>
   <path class="fil0" d="M3256.35 1104.2c21.48,54.81 134.34,294.32 164.88,330.66 56.69,-13.49 244.09,-103.82 432.79,-148.11 447.79,-105.1 929.46,-89.45 1362.31,67.51 70.35,25.51 147.26,62.77 211.06,81.97 31.66,-62.64 141.77,-271.75 157.37,-327.02 -47.38,-60.14 -386.19,-155.52 -494.39,-182.27 -292.62,-72.34 -443.31,-78.24 -736.42,-78.24 -355.31,0 -832.4,108.18 -1097.6,255.5z"/>
   <path class="fil0" d="M6178.85 6151.74c-74.12,-545.07 630.76,-633.23 701.32,-136.2 32.63,229.86 -98.36,425.82 -284.39,460.66 -234.02,43.81 -390.18,-127.72 -416.93,-324.46zm257.32 -659.46c-304.54,47.26 -526.12,326.61 -478.84,681.76 40.94,307.55 303.07,557.34 663.07,503.53 301.11,-45 526.38,-326.52 482.05,-679.13 -38.94,-309.69 -308.34,-561.71 -666.28,-506.16z"/>
   <path class="fil0" d="M7490.99 5877.14l290.73 351.78c32.08,39.07 64.19,77.97 97.88,120.71 63.6,80.68 124.44,155.09 188.16,234.6 31.26,39.01 53.38,84.49 126.24,83.15 69.52,-1.27 103.98,-44.24 103.98,-114.86l0 -947.3c0,-89.68 -88.57,-136.22 -152.02,-84.66 -51.85,42.14 -35.66,147.68 -35.66,230.4 0,178.53 6.63,370.07 -0.89,546.99l-629.58 -772.69c-56.53,-45.34 -136.55,-22.43 -164.09,25.34 -24.84,43.09 -14.28,163.92 -14.28,222.22l0 699.54c0,74.68 -11.93,157.79 50.69,186.57 71.08,32.67 129.2,-14.12 137.4,-74.56l1.44 -707.23z"/>
   <path class="fil0" d="M4483.74 5873.92c33.33,26.45 479.24,588.86 527.12,648.4 19.71,24.52 93.83,119.95 105.65,127.61 55.89,36.25 131.72,15.48 161.01,-33.77 25.98,-43.68 12.83,-615.52 12.83,-690.32 0,-77.72 -0.01,-155.45 0,-233.18 0,-78.25 9.12,-157.35 -53.36,-183.59 -71.75,-30.13 -130.08,21.18 -134.13,88.44 -11.85,196.81 14.89,489.96 -1.53,704.54 -125.53,-140.64 -382.31,-473.31 -521.12,-646.1l-105.47 -127.9c-53.7,-48.12 -132.87,-25.79 -164.45,19.03 -30.84,43.74 -16.46,164.95 -16.46,225.74l0 699.54c-0.01,85.01 -13.49,161.85 54.66,187.84 178.37,68.01 134.81,-220.12 134.81,-311.72 0,-157.42 -2.82,-317.46 0.44,-474.56z"/>
   <path class="fil0" d="M5394.15 9658.56l196.76 -0.45c-0.01,-101.27 -0.01,-200.7 0,-300.14 0,-90.37 -13.11,-199.77 -9.12,-280.55l157.46 549.39c9.82,31.33 0.22,20 21.07,31.75l189.46 0c23.7,-17.35 38.86,-102.68 47.96,-136.23 13.16,-48.51 26.54,-97.64 41.39,-147.84 22.36,-75.63 52.97,-230.09 85.09,-289.33l-8.58 573.38 205.77 0.02 0 -814.31c-325.77,0 -287.2,-23.41 -312.42,62.89 -7.51,25.71 -13.34,45.99 -21.2,73.58 -34.57,121.38 -103.82,339.34 -125.46,437.82 -23.76,-33.89 -72.41,-228.13 -88.97,-285.18 -14.34,-49.4 -69.77,-260.2 -88.63,-289.15l-285.8 0c-11.76,42.03 -4.78,712.13 -4.78,814.35z"/>
   <path class="fil0" d="M3161.17 5509.6c-57.44,24.46 -66.3,45.35 -66.2,124.53l0.38 583.48c14.88,526.55 670.45,587.64 875.09,250.04 104.04,-171.64 70.17,-476.04 70.17,-702.12 0,-113.47 29.51,-293.67 -123.2,-262.93 -99.52,20.04 -71.73,169.04 -71.73,313.94 0,127.19 3.71,259.94 -0.17,386.43 -8.62,281.04 -316.44,326.57 -446.06,210.87 -84.32,-75.25 -91.14,-161.43 -91.14,-298.53 0.01,-71.27 11.87,-512.35 -11.65,-559.84 -19.44,-39.25 -72.94,-72.51 -135.49,-45.87z"/>
   <path class="fil0" d="M1943.82 5833.39l169.43 379.03 -333.39 1.22c12.89,-51.79 59.17,-144.64 81.02,-194.02 25.05,-56.58 54.05,-137.67 82.94,-186.23zm-252.3 573.39l508.23 0c17.12,55.62 86.08,242.1 149.11,263.65 43.84,14.98 84.53,-4 105.17,-28.67 51.34,-61.38 -3.86,-147.68 -29.49,-207.35l-337.04 -785.18c-29.92,-70.76 -46.67,-150.51 -130.9,-154.52 -91.43,-4.35 -108.03,72.89 -137.12,141.06l-335.07 787.12c-23.55,54.09 -82.51,154.97 -50.43,215.04 36.17,67.7 140.02,43.33 173.16,-34.02 27.52,-64.27 59.78,-133.27 84.38,-197.13z"/>
   <path class="fil0" d="M3330.17 9022.77c142.55,0 240.4,17.82 240.4,211.32 0,206.83 -76.6,242.28 -240.4,242.28l0 -453.6zm-220.46 633.51l275.08 2.28c278.4,-0.26 415.36,-167.38 415.36,-439.04 0,-170.29 -79.98,-281.18 -196.92,-335.11 -94.55,-43.6 -378.86,-54.41 -493.52,-37.43l0 809.3z"/>
   <path class="fil0" d="M4267.4 8990.91c14.75,26.81 86.74,303.82 83.82,334.27l-163.29 -0.51 79.47 -333.76zm-411.52 667.1l245.31 0.55 39.45 -153.44 261.15 0.61 40.61 152.44 241.28 0.39c-14.77,-62.91 -45.23,-144.12 -66.21,-207 -22.84,-68.47 -48.61,-138.66 -69.57,-207.37l-99.94 -308.04c-39.22,-125.08 12.62,-95.55 -326.28,-95.55l-265.8 817.41z"/>
   <path class="fil0" d="M793.83 6469.2c-11.19,-142.18 -1.34,-532.22 -1.34,-718.24 0,-70.33 14.67,-167.55 -27.48,-214.66 -49.02,-54.79 -126.88,-41.36 -167.29,7.22 -35.26,42.38 -20.2,161.13 -20.2,222.01l-0.01 721.4c-0.07,86.88 -5.22,151.97 67.59,174.74 46.58,14.57 395.5,5.62 473.47,5.62 82.52,0 156.04,14.68 200.04,-38.64 47.2,-57.19 10.3,-137.27 -49.84,-153.12 -84.8,-22.35 -362.56,2.51 -474.94,-6.33z"/>
   <path class="fil0" d="M4771.05 9656.28c50.28,6.18 448.16,7.28 482.86,-2.27l-0.36 -174.03 -261.96 -1.94 0 -151.03 242.48 0 1.38 -178.55 -244.13 0 0.27 -125.69 262.33 -0.54 -0.37 -176.21 -479.71 -1.81 -2.79 812.07z"/>
   <path class="fil0" d="M5618.22 5505.96c-101.79,27.59 -74.69,156.02 -74.69,266.86l0 692.25c-0.01,51.43 -10.35,116.12 16.69,156 19.99,29.47 64.59,57.5 121.24,41.83 103.39,-28.6 77.04,-155.47 77.04,-263.41l0 -692.25c0.01,-51.11 9.44,-115.82 -15.6,-157.19 -20.32,-33.56 -66.7,-59.8 -124.68,-44.09z"/>
   <polygon class="fil0" points="2595.98,9798.82 2656.11,9798.82 2683.5,9796.72 2683.44,8781.4 2656.16,8778.11 2595.99,8778.66 "/>
   <path class="fil0" d="M4863.59 418.34c40.48,34.27 53.08,61.76 87.43,93.85 29.92,27.94 68.15,66.55 85.18,95.6 22.88,-8.71 134.15,-103.71 155.91,-125.05 19.1,-18.74 31.36,-29.13 54,-41.2 -9.32,-29.19 -158.19,-188.93 -176.22,-205.86 -33.34,13.42 -121.29,102.28 -155.59,129.41 -21.39,16.93 -37.75,23.81 -50.71,53.25z"/>
   <path class="fil0" d="M3609.54 409.68c15.15,27.98 64.28,74.83 85.63,97.53 19.27,20.5 77.07,81.59 87.68,100.1 36.34,-18.73 169.13,-136.12 205.83,-175.77 -10.87,-21.72 -63.64,-76.54 -82.88,-98.51 -33.2,-37.89 -59.97,-57 -89.25,-97.79 -33.66,13.31 -182.48,146.84 -207.01,174.44z"/>
   <path class="fil0" d="M3002.21 591.85l131.51 149.21c16.16,18.82 31.11,30.18 47.04,47.76l54.56 -40.58c37.3,-31.8 128.74,-107.55 148.79,-134.53 -22.58,-32.7 -155.46,-178.43 -183.29,-195.38 -30.43,32.51 -173.72,142.38 -198.61,173.52z"/>
   <path class="fil0" d="M5462.69 591.85c6.91,17.09 158.64,184.7 181.04,197.19l153.17 -131.3c21.81,-18.43 27.57,-20.37 47.46,-44.03l-178.77 -194.04c-33.38,17.36 -70.03,57.2 -103.2,83.42l-99.7 88.76z"/>
   <path class="fil0" d="M4225.95 360.46l179.01 194.49c28.13,-11.5 185.12,-151.13 201.99,-174.42 -51.52,-65.23 -51.5,-56.15 -88.76,-98.51 -16.92,-19.25 -27.28,-31.5 -44.17,-50.84 -16.14,-18.49 -31.37,-28.06 -45.41,-44.24 -15.9,9.15 -38.42,28.91 -52.2,41.21l-150.46 132.31z"/>
   <path class="fil0" d="M4318.41 2997.9c49.31,54.22 135.57,134.66 170.83,191.24 28,-11.84 190.95,-156.44 206.3,-178.52 -21.3,-18.15 -68.36,-67.42 -89.3,-91.43 -32.75,-37.54 -53.65,-60.21 -91.98,-95.06 -20.69,12.67 -26.72,18.4 -46.83,38.04 -29.3,28.6 -133.89,105.32 -149.02,135.73z"/>
   <path class="fil0" d="M6674.34 5182.58c-72.31,34.99 -110.73,87.31 -169.8,132.25 -98.69,75.08 -14.99,159.5 80.95,109.62 42.53,-22.11 166.04,-82.95 191.29,-106.98 73.31,-69.76 -7.25,-180.94 -102.44,-134.89z"/>
   <path class="fil0" d="M5160.52 737.59c9.93,18.56 40.09,46.35 54.98,63.88 18.9,22.25 37.5,40.4 53.88,60.88 36.05,-15.73 100.31,-79.55 133.43,-110.19 -17.71,-34.29 -80.47,-100.22 -116.14,-127.28 -27.6,22.89 -43.08,31.57 -65.85,54.16 -13.97,13.87 -15.71,15.12 -30.95,27.19 -18.78,14.85 -18.63,11.7 -29.35,31.36z"/>
   <path class="fil0" d="M4592.6 635.57c11.06,19.98 96.06,112.84 118.41,124.33l128.44 -112.03 -116.11 -125.28c-26.7,25.27 -115.03,81.44 -130.74,112.98z"/>
   <path class="fil0" d="M3444.46 743.52c12.21,24.74 92.95,106.79 115.22,125.69 20.6,-10.49 116.85,-91.59 128.44,-109.76l-113.87 -127.28c-28.45,16.79 -113.81,91.98 -129.79,111.35z"/>
   <path class="fil0" d="M4019.42 642.85c12.22,32.09 84.35,101.86 108.16,130.28 36.56,-14.31 95.89,-82.48 133.91,-105.7 -16.3,-50.79 -85.22,-86.26 -110.65,-134.32l-131.42 109.74z"/>
   <path class="fil0" d="M4337.55 747.59c37.33,25.44 45.39,51.37 74.69,71.75 18.71,-9.93 3.4,-0.72 21.91,-16.11l58.03 -51.07c-10.31,-34.79 -46.25,-60.6 -72.65,-84.95 -24.07,14.74 -70.14,49.16 -81.98,80.38z"/>
   <path class="fil0" d="M5418.75 897.9c11.01,16.1 20.34,28.64 35.41,43.94 18.4,18.68 23.92,28.4 45.65,36.66 27.7,-31.19 52.08,-41.88 74.71,-73.32l-67.48 -80.25 -48.6 33.57c-12.94,11.25 -32.23,29.92 -39.69,39.4z"/>
   <path class="fil0" d="M3256.35 910.64c22.92,29.51 50.12,50.13 69.67,81.09 20.88,-9.41 76.13,-56.18 87.48,-79.74 -22.73,-19.57 -51.65,-59.29 -72.43,-73.76 -31.47,17.09 -62.98,46.83 -84.72,72.41z"/>
   <path class="fil0" d="M4882.73 770.85c15.52,35.53 49.77,66.64 76.03,89.69l82.87 -71.95 -65.58 -81.04c-38.91,15.37 -57.15,43.61 -93.32,63.3z"/>
   <path class="fil0" d="M3773.72 793.61c19.97,25.22 53.39,60.39 79.23,79.26 22.08,-22.11 53.71,-42.94 80.41,-69.7 -20.75,-28.7 -49.38,-65.78 -74.92,-80.62 -28.01,15.54 -60.54,51.59 -84.72,71.06z"/>
   <path class="fil0" d="M4019.87 234.79c6.51,19.24 -2.26,2.2 13.33,21.89 6.27,7.92 10.93,12.15 17.06,19.32 13.04,15.26 21.69,25.21 31.36,41.66 31.55,-8.15 76.53,-50.72 94.28,-70.09l-74.72 -82.93c-22.93,18.69 -58.66,45.48 -81.31,70.15z"/>
   <path class="fil0" d="M4680.94 234.79c7.58,16.65 53.69,70.9 76.5,81.52l70.4 -72.64c-10.73,-26.48 -44.2,-69.03 -75.83,-83.12 -25.53,35.84 -49.79,45.96 -71.07,74.24z"/>
   <path class="fil1" d="M614.58 7592.72l0 -618.16 81.19 0 0 618.16 -81.19 0zm212.67 0l0 -618.16 75.21 0 0 618.16 -75.21 0zm481.33 0l0 -66.62c-34.48,50.79 -81.2,76.12 -140.32,76.12 -26.06,0 -50.42,-5.03 -73.07,-15.11 -22.65,-10.22 -39.46,-22.87 -50.43,-38.13 -10.96,-15.39 -18.66,-34.1 -23.08,-56.27 -2.99,-14.96 -4.56,-38.55 -4.56,-70.79l0 -277.28 75.21 0 0 247.93c0,39.57 1.57,66.33 4.56,80 4.71,20 14.68,35.54 30.06,46.91 15.25,11.37 34.05,17.13 56.55,17.13 22.51,0 43.59,-5.76 63.25,-17.42 19.66,-11.65 33.62,-27.62 41.88,-47.62 8.12,-20.01 12.25,-49.22 12.25,-87.35l0 -239.58 75.21 0 0 448.08 -67.51 0zm155.68 -133.82l74.36 -12.08c4.13,30.07 15.81,53.1 34.9,69.21 19.08,15.97 45.87,24.03 80.05,24.03 34.61,0 60.25,-7.05 77.07,-21.29 16.66,-14.11 25.06,-30.8 25.06,-49.94 0,-17.12 -7.55,-30.65 -22.5,-40.44 -10.54,-6.76 -36.18,-15.25 -76.92,-25.75 -54.99,-13.96 -93.01,-26.04 -114.39,-36.26 -21.22,-10.36 -37.32,-24.46 -48.28,-42.59 -10.97,-17.99 -16.52,-37.99 -16.52,-59.86 0,-20 4.55,-38.42 13.53,-55.4 9.11,-16.98 21.36,-31.08 36.89,-42.3 11.68,-8.64 27.64,-15.98 47.72,-22.02 20.23,-6.04 41.73,-9.07 64.81,-9.07 34.76,0 65.25,5.04 91.45,15.26 26.35,10.07 45.72,23.89 58.26,41.15 12.4,17.41 21.08,40.58 25.78,69.65l-73.5 10.36c-3.27,-23.32 -12.96,-41.59 -28.91,-54.69 -15.96,-13.09 -38.46,-19.57 -67.66,-19.57 -34.33,0 -58.98,5.76 -73.66,17.27 -14.66,11.52 -22.07,25.04 -22.07,40.44 0,9.78 2.99,18.7 9.12,26.62 6.12,8.05 15.67,14.82 28.77,20.14 7.55,2.88 29.49,9.35 66.23,19.43 52.99,14.24 90.03,26.04 111.12,35.1 21.07,9.07 37.6,22.46 49.56,39.72 12.11,17.41 18.1,39 18.1,64.9 0,25.18 -7.26,48.92 -21.94,71.22 -14.68,22.31 -35.76,39.58 -63.25,51.8 -27.63,12.24 -58.83,18.28 -93.59,18.28 -57.54,0 -101.56,-12.08 -131.75,-36.12 -30.2,-24.17 -49.43,-59.86 -57.84,-107.2zm620.49 66.05l10.27 67.05c-21.09,4.46 -40.04,6.76 -56.56,6.76 -27.21,0 -48.29,-4.31 -63.39,-13.09 -14.95,-8.78 -25.5,-20.14 -31.62,-34.39 -6.12,-14.24 -9.11,-44.17 -9.11,-89.78l0 -258.15 -55.57 0 0 -58.71 55.57 0 0 -110.79 75.2 -45.62 0 156.41 75.21 0 0 58.71 -75.21 0 0 262.46c0,21.73 1.28,35.68 3.99,41.87 2.57,6.19 6.84,11.09 12.82,14.83 5.98,3.59 14.53,5.46 25.64,5.46 8.26,0 19.23,-1.01 32.76,-3.02zm73.36 67.77l0 -448.08 67.53 0 0 68.64c17.23,-31.8 33.18,-52.81 47.85,-62.88 14.68,-10.22 30.77,-15.26 48.3,-15.26 25.35,0 51.13,8.06 77.34,24.03l-26.78 70.08c-18.23,-10.36 -36.46,-15.54 -54.69,-15.54 -16.39,0 -31.06,5.04 -44.03,14.96 -12.95,9.94 -22.21,23.75 -27.77,41.44 -8.4,26.91 -12.54,56.41 -12.54,88.5l0 234.11 -75.21 0zm588.01 -145.04l77.78 10.36c-12.11,45.62 -34.75,81.15 -67.8,106.33 -33.05,25.19 -75.21,37.85 -126.63,37.85 -64.67,0 -115.96,-20.14 -153.85,-60.44 -37.88,-40.14 -56.83,-96.69 -56.83,-169.36 0,-75.11 19.08,-133.53 57.4,-174.97 38.33,-41.59 88.04,-62.31 149.14,-62.31 59.12,0 107.41,20.29 144.87,61.02 37.47,40.72 56.27,97.99 56.27,171.8 0,4.46 -0.14,11.22 -0.43,20.15l-330.33 0c2.85,49.06 16.53,86.76 41.31,112.81 24.64,26.04 55.55,39.14 92.45,39.14 27.49,0 50.99,-7.34 70.36,-22.01 19.51,-14.68 34.9,-38.14 46.29,-70.37zm-246.14 -121.74l247 0c-3.27,-37.7 -12.82,-65.9 -28.34,-84.75 -23.79,-29.2 -54.84,-43.89 -92.88,-43.89 -34.46,0 -63.38,11.66 -86.89,34.97 -23.36,23.31 -36.32,54.54 -38.89,93.67zm664.09 266.78l0 -618.16 121.36 0 144.72 437.58c13.39,40.72 23.08,71.23 29.2,91.52 6.98,-22.46 17.95,-55.55 32.76,-99.15l147.29 -429.95 108.41 0 0 618.16 -77.78 0 0 -517.14 -178.62 517.14 -72.94 0 -176.64 -526.65 0 526.65 -77.76 0zm993.98 0l0 -66.62c-34.47,50.79 -81.2,76.12 -140.31,76.12 -26.07,0 -50.42,-5.03 -73.07,-15.11 -22.66,-10.22 -39.46,-22.87 -50.43,-38.13 -10.97,-15.39 -18.66,-34.1 -23.08,-56.27 -2.99,-14.96 -4.56,-38.55 -4.56,-70.79l0 -277.28 75.21 0 0 247.93c0,39.57 1.57,66.33 4.56,80 4.71,20 14.67,35.54 30.06,46.91 15.24,11.37 34.04,17.13 56.55,17.13 22.51,0 43.58,-5.76 63.24,-17.42 19.67,-11.65 33.62,-27.62 41.88,-47.62 8.12,-20.01 12.26,-49.22 12.26,-87.35l0 -239.58 75.21 0 0 448.08 -67.52 0zm185.6 0l0 -448.08 67.52 0 0 63.6c32.48,-48.78 79.49,-73.1 140.88,-73.1 26.78,0 51.28,4.9 73.65,14.54 22.36,9.63 39.17,22.44 50.28,38.13 11.11,15.68 18.94,34.39 23.35,55.97 2.71,14.1 4.14,38.71 4.14,73.82l0 275.12 -75.21 0 0 -272.24c0,-30.94 -2.85,-54.11 -8.7,-69.36 -5.83,-15.25 -16.23,-27.49 -31.04,-36.69 -14.81,-9.07 -32.34,-13.67 -52.28,-13.67 -31.91,0 -59.41,10.22 -82.62,30.79 -23.21,20.43 -34.76,59.43 -34.76,116.7l0 244.47 -75.21 0zm475.34 -531.83l0 -86.33 75.21 0 0 86.33 -75.21 0zm0 531.83l0 -448.08 75.21 0 0 448.08 -75.21 0zm479.62 -164.04l73.49 10.37c-8.12,51.08 -28.62,90.94 -61.82,119.86 -33.19,28.92 -74.08,43.31 -122.36,43.31 -60.54,0 -109.26,-20 -146,-60.01 -36.9,-39.99 -55.27,-97.26 -55.27,-171.8 0,-48.35 7.98,-90.51 23.79,-126.77 15.81,-36.12 39.88,-63.31 72.36,-81.3 32.33,-18.13 67.51,-27.2 105.69,-27.2 48,0 87.46,12.24 117.95,36.84 30.62,24.61 50.28,59.57 58.82,104.75l-72.64 11.22c-6.98,-30.07 -19.24,-52.66 -37.04,-67.91 -17.66,-15.11 -39.02,-22.74 -64.1,-22.74 -37.89,0 -68.65,13.68 -92.44,41.02 -23.65,27.48 -35.47,70.65 -35.47,129.93 0,60.14 11.39,103.75 34.18,130.95 22.94,27.19 52.7,40.86 89.31,40.86 29.63,0 54.27,-9.07 73.94,-27.34 19.79,-18.13 32.33,-46.19 37.61,-84.04zm137.59 -367.79l0 -86.33 75.22 0 0 86.33 -75.22 0zm0 531.83l0 -448.08 75.22 0 0 448.08 -75.22 0zm189.88 171.81l0 -619.89 68.38 0 0 58.85c16.09,-22.73 34.33,-39.86 54.69,-51.23 20.23,-11.36 44.87,-17.12 73.78,-17.12 37.9,0 71.23,9.79 100.15,29.5 28.92,19.57 50.7,47.35 65.52,83.03 14.67,35.83 22.08,74.96 22.08,117.7 0,45.62 -8.11,86.77 -24.35,123.46 -16.25,36.55 -39.9,64.61 -70.94,84.18 -30.92,19.43 -63.53,29.21 -97.72,29.21 -25.07,0 -47.58,-5.32 -67.38,-15.97 -19.95,-10.65 -36.18,-24.03 -49,-40.29l0 218.57 -75.21 0zm68.38 -393.12c0,57.42 11.53,99.87 34.47,127.35 23.06,27.49 50.99,41.3 83.75,41.3 33.34,0 61.82,-14.24 85.47,-42.74 23.79,-28.49 35.61,-72.52 35.61,-132.24 0,-56.98 -11.54,-99.57 -34.75,-127.92 -23.22,-28.35 -50.85,-42.45 -83.05,-42.45 -31.9,0 -60.12,15.11 -84.61,45.19 -24.65,30.21 -36.89,73.96 -36.89,131.51zm764.21 221.31l-70.08 0 0 -57.99 -1.71 0c-13.68,22.45 -30.63,39.43 -50.86,50.66 -20.36,11.22 -45.01,16.83 -73.93,16.83 -28.2,0 -53.7,-5.61 -76.77,-16.98 -22.93,-11.37 -42.74,-27.48 -59.27,-48.06 -16.51,-20.58 -29.33,-45.18 -38.45,-73.82 -8.97,-28.63 -13.53,-60.14 -13.53,-94.68 0,-35.68 4.56,-67.92 13.53,-96.84 9.12,-28.78 21.8,-53.38 38.03,-73.53 16.24,-20.28 35.9,-35.82 58.83,-46.76 22.94,-10.94 48.58,-16.41 76.64,-16.41 52.56,0 92.87,20.43 120.65,61.16l1.71 0 0 -51.66 75.21 0 0 448.08zm-186.18 -52.66c16.25,0 31.48,-3.31 45.73,-10.07 14.39,-6.77 26.92,-16.98 37.61,-30.51 10.67,-13.67 19.23,-30.65 25.35,-51.37 6.13,-20.57 9.12,-44.75 9.12,-72.52 0,-26.62 -2.71,-50.94 -7.98,-72.95 -5.28,-22.02 -12.96,-40.73 -23.08,-56.41 -10.25,-15.54 -22.93,-27.48 -38.03,-36.12 -15.25,-8.49 -32.47,-12.81 -51.99,-12.81 -19.81,0 -37.04,4.18 -51.85,12.67 -14.67,8.34 -27.07,20.14 -36.89,35.25 -9.97,15.11 -17.24,33.24 -22.23,54.25 -4.84,21.01 -7.26,44.18 -7.26,69.35 0,28.64 3.28,53.68 9.83,75.12 6.55,21.44 15.38,39.28 26.49,53.38 11.12,14.24 24.08,24.9 38.61,31.95 14.67,7.19 30.19,10.79 46.57,10.79zm379.9 -74.11c0,10.94 0.29,20.44 1,28.21 0.71,7.91 2.42,14.38 5.27,19.28 2.7,4.89 6.98,8.49 12.68,10.93 5.69,2.45 13.39,3.6 23.07,3.6 4.99,0 10.26,-0.29 15.67,-1.01 5.56,-0.71 11.4,-1.58 17.53,-2.3l9.96 67.34c-11.11,2.31 -21.21,3.89 -30.62,5.04 -9.25,1.15 -17.81,1.72 -25.64,1.72 -26.35,0 -46.58,-3.45 -60.54,-10.35 -14.1,-6.91 -24.36,-16.41 -30.91,-28.49 -6.55,-12.09 -10.26,-26.48 -11.26,-43.17 -0.98,-16.7 -1.42,-35.11 -1.42,-55.11l0 -487.08 75.21 0 0 491.39zm141.74 -405.06l0 -86.33 75.21 0 0 86.33 -75.21 0zm0 531.83l0 -448.08 75.21 0 0 448.08 -75.21 0zm476.19 0l0 -56.83c-28.07,44.17 -69.37,66.33 -123.92,66.33 -35.34,0 -67.81,-9.78 -97.3,-29.5 -29.63,-19.57 -52.55,-47.05 -68.95,-82.16 -16.23,-35.26 -24.35,-75.69 -24.35,-121.45 0,-44.6 7.4,-85.03 22.09,-121.44 14.81,-36.26 36.88,-64.18 66.37,-83.46 29.34,-19.43 62.39,-29.07 98.71,-29.07 26.78,0 50.57,5.76 71.37,17.12 20.8,11.37 37.74,26.34 50.85,44.62l0 -222.32 75.21 0 0 618.16 -70.08 0zm-237.6 -223.46c0,57.27 11.97,100.01 36.04,128.35 23.93,28.35 52.27,42.45 84.9,42.45 32.9,0 60.82,-13.53 83.9,-40.58 22.93,-27.05 34.47,-68.35 34.47,-123.89 0,-61.02 -11.69,-105.91 -35.18,-134.54 -23.36,-28.64 -52.28,-42.88 -86.61,-42.88 -33.47,0 -61.4,13.67 -83.9,41.15 -22.37,27.49 -33.62,70.8 -33.62,129.94zm783.88 223.46l-70.09 0 0 -57.99 -1.71 0c-13.67,22.45 -30.63,39.43 -50.86,50.66 -20.36,11.22 -45,16.83 -73.92,16.83 -28.2,0 -53.71,-5.61 -76.78,-16.98 -22.93,-11.37 -42.73,-27.48 -59.25,-48.06 -16.53,-20.58 -29.35,-45.18 -38.46,-73.82 -8.98,-28.63 -13.54,-60.14 -13.54,-94.68 0,-35.68 4.56,-67.92 13.54,-96.84 9.11,-28.78 21.79,-53.38 38.02,-73.53 16.24,-20.28 35.9,-35.82 58.84,-46.76 22.94,-10.94 48.57,-16.41 76.63,-16.41 52.56,0 92.88,20.43 120.65,61.16l1.72 0 0 -51.66 75.21 0 0 448.08zm-186.18 -52.66c16.24,0 31.48,-3.31 45.72,-10.07 14.39,-6.77 26.92,-16.98 37.61,-30.51 10.68,-13.67 19.23,-30.65 25.35,-51.37 6.13,-20.57 9.12,-44.75 9.12,-72.52 0,-26.62 -2.71,-50.94 -7.98,-72.95 -5.27,-22.02 -12.96,-40.73 -23.08,-56.41 -10.25,-15.54 -22.93,-27.48 -38.03,-36.12 -15.24,-8.49 -32.47,-12.81 -51.99,-12.81 -19.8,0 -37.03,4.18 -51.85,12.67 -14.67,8.34 -27.06,20.14 -36.89,35.25 -9.97,15.11 -17.24,33.24 -22.22,54.25 -4.85,21.01 -7.27,44.18 -7.27,69.35 0,28.64 3.28,53.68 9.83,75.12 6.55,21.44 15.39,39.28 26.5,53.38 11.11,14.24 24.07,24.9 38.6,31.95 14.67,7.19 30.2,10.79 46.58,10.79zm590.15 52.66l0 -56.83c-28.06,44.17 -69.37,66.33 -123.93,66.33 -35.33,0 -67.8,-9.78 -97.29,-29.5 -29.63,-19.57 -52.56,-47.05 -68.94,-82.16 -16.24,-35.26 -24.37,-75.69 -24.37,-121.45 0,-44.6 7.41,-85.03 22.09,-121.44 14.81,-36.26 36.89,-64.18 66.38,-83.46 29.34,-19.43 62.38,-29.07 98.72,-29.07 26.77,0 50.56,5.76 71.36,17.12 20.79,11.37 37.74,26.34 50.85,44.62l0 -222.32 75.21 0 0 618.16 -70.08 0zm-237.6 -223.46c0,57.27 11.96,100.01 36.03,128.35 23.94,28.35 52.28,42.45 84.9,42.45 32.91,0 60.83,-13.53 83.9,-40.58 22.94,-27.05 34.48,-68.35 34.48,-123.89 0,-61.02 -11.69,-105.91 -35.18,-134.54 -23.37,-28.64 -52.29,-42.88 -86.61,-42.88 -33.47,0 -61.4,13.67 -83.91,41.15 -22.36,27.49 -33.61,70.8 -33.61,129.94z"/>
  </g>
 </g>
</svg>
